# xmcd
#
# Track frame offsets: 
#        150
#        16557
#        27883
#        44932
#        61100
#        76715
#        93422
#        106142
#        123740
#        134304
#        144246
#        157317
#        166236
#        182043
#        198652
#        211887
#
# Disc length: 3072 seconds
#
# Revision: 0
# Processed by: cddbd v1.5.2PL0 Copyright (c) Steve Scherf et al.
# Submitted via: ExactAudioCopyFreeDBPlugin 1.0
#
DISCID=d60bfe10
DTITLE=The Classic Christmas  Country Album - The Classic Christmas Co
DTITLE=untry Album
DYEAR=2016
DGENRE=Country
TTITLE0=Christmas Time's a Comin' - Patty Loveless
TTITLE1=Christmas Time - John Anderson
TTITLE2=Pretty Paper - Kenny Chesney w. Willie Nelson
TTITLE3=Rockin' Little Christmas - Deborah Allen
TTITLE4=Santa Baby - Kelly Pickler
TTITLE5=Blue Christmas - K. T. Oslin
TTITLE6=Please Come Home for Christmas - Lonestar
TTITLE7=I'll be Home for Christmas - Sara Evans
TTITLE8=Rockin' Around the Christmas Tree - Alabama
TTITLE9=Jingle Bell Rock - Sweethearts of the Rodeo
TTITLE10=Mele Kalikimaka - Jake Owen
TTITLE11=Let It Snow Let It Snow Let It Snow - Ricochet
TTITLE12=Winter Wonderland - Brad Paisley
TTITLE13=White Christmas - Lari White
TTITLE14=The Christmas Song - Brooks and Dunn
TTITLE15=Have Yourself a Merry Little Christmas - Martina McBride
EXTD=
EXTT0=
EXTT1=
EXTT2=
EXTT3=
EXTT4=
EXTT5=
EXTT6=
EXTT7=
EXTT8=
EXTT9=
EXTT10=
EXTT11=
EXTT12=
EXTT13=
EXTT14=
EXTT15=
PLAYORDER=
